# AST/ASF file generated using VICON BodyLanguage
# -----------------------------------------------
:version 1.10
:name VICON
:units
  mass 1.0
  length 0.45
  angle deg
:documentation
   .ast/.asf automatically generated from VICON data using
   VICON BodyBuilder and BodyLanguage model FoxedUp or BRILLIANT.MOD
:root
   order TX TY TZ RX RY RZ
   axis XYZ
   position 0 0 0  
   orientation 0 0 0 
:bonedata
  begin
     id 1 
     name lhipjoint
     direction 0.541323 -0.757556 0.364798 
     length 2.47576 
     axis 0 0 0  XYZ
  end
  begin
     id 2 
     name lfemur
     direction 0.34202 -0.939693 0  
     length 7.46493  
     axis 0 0 20  XYZ
    dof rx ry rz
    limits (-160.0 20.0)
           (-70.0 70.0)
           (-60.0 70.0)
  end
  begin
     id 3 
     name ltibia
     direction 0.34202 -0.939693 0   
     length 7.73805   
     axis 0 0 20   XYZ
    dof rx
    limits (-10.0 170.0)
  end
  begin
     id 4 
     name lfoot
     direction 0.107174 -0.294458 0.949636   
     length 2.25864   
     axis -90 7.62852e-016 20   XYZ
    dof rx rz
    limits (-45.0 90.0)
           (-70.0 20.0)
  end
  begin
     id 5 
     name ltoes
     direction 1.53606e-011 -4.21934e-011 1   
     length 1.12451   
     axis -90 7.62852e-016 20   XYZ
    dof rx
    limits (-90.0 20.0)
  end
  begin
     id 6 
     name rhipjoint
     direction -0.524745 -0.766967 0.36933   
     length 2.44538  
     axis 0 0 0  XYZ 
  end
  begin
     id 7 
     name rfemur
     direction -0.34202 -0.939693 0   
     length 7.61604   
     axis 0 0 -20   XYZ
    dof rx ry rz
    limits (-160.0 20.0)
           (-70.0 70.0)
           (-70.0 60.0)
  end
  begin
     id 8 
     name rtibia
     direction -0.34202 -0.939693 0   
     length 7.61056   
     axis 0 0 -20   XYZ
    dof rx
    limits (-10.0 170.0)
 end
 begin
     id 9 
     name rfoot
     direction -0.12616 -0.346623 0.929482   
     length 2.46372  
     axis -90 -7.62852e-016 -20   XYZ
    dof rx rz
    limits (-45.0 90.0)
           (-20.0 70.0)
  end
  begin
     id 10 
     name rtoes
     direction -1.53531e-011 -4.22004e-011 1   
     length 1.21611   
     axis -90 -7.62852e-016 -20   XYZ
    dof rx
    limits (-90.0 20.0)
  end
  begin
     id 11 
     name lowerback
     direction -0.000778023 0.997293 -0.0735223   
     length 2.06139   
     axis 0 0 0   XYZ
    dof rx ry rz
    limits (-20.0 45.0)
           (-30.0 30.0)
           (-30.0 30.0)
  end
  begin
     id 12 
     name upperback
     direction 0.0222598 0.999722 -0.0078355   
     length 2.06383   
     axis 0 0 0   XYZ
    dof rx ry rz
    limits (-20.0 45.0)
           (-30.0 30.0)
           (-30.0 30.0)
  end
  begin
     id 13 
     name thorax
     direction 0.0219654 0.999405 0.0265994   
     length 2.07163   
     axis 0 0 0   XYZ
    dof rx ry rz
    limits (-20.0 45.0)
           (-30.0 30.0)
           (-30.0 30.0)
  end
  begin
     id 14 
     name lowerneck
     direction 0.0213282 0.988147 0.15202   
     length 1.75969   
     axis 0 0 0   XYZ
    dof rx ry rz
    limits (-20.0 45.0)
           (-30.0 30.0)
           (-30.0 30.0)
  end
  begin
     id 15 
     name upperneck
     direction -0.0546456 0.982624 -0.177379   
     length 1.79244   
     axis 0 0 0   XYZ
    dof rx ry rz
    limits (-20.0 45.0)
           (-30.0 30.0)
           (-30.0 30.0)
  end
  begin
     id 16
     name head
     direction -0.0199987 0.996855 -0.076686  
     length 1.80555  
     axis 0 0 0   XYZ
    dof rx ry rz
    limits (-20.0 45.0)
           (-30.0 30.0)
           (-30.0 30.0)
  end
  begin
     id 17 
     name lclavicle
     direction 0.929565 0.363219 -0.063096  
     length 3.55722  
     axis 0 0 0   XYZ
    dof ry rz
    limits (-20.0 10.0)
           (0.0 20.0)
  end
  begin
     id 18 
     name lhumerus
     direction 1 -4.48993e-011 -2.36203e-027   
     length 4.92785   
     axis 180 -30 -90   XYZ
    dof rx ry rz
    limits (-60.0 90.0)
           (-90.0 90.0)
           (-90.0 90.0)
  end
  begin
     id 19
     name lradius
     direction 1 -4.48947e-011 2.02997e-027   
     length 3.44052   
     axis 180 -30 -90   XYZ
    dof rx
    limits (-10.0 170.0)
  end
  begin
     id 20
     name lwrist
     direction 1 -4.48962e-011 1.45991e-027   
     length 1.72026   
     axis 1.49639e-024 90 90   XYZ
    dof ry
    limits (-180.0 0.0)
 end
  begin
     id 21 
     name lhand
     direction 1 -4.48984e-011 2.91906e-027   
     length 0.654326   
     axis -1.863e-015 90 90   XYZ
    dof rx rz
    limits (-90.0 90.0)
           (-45.0 45.0)
  end
  begin
     id 22 
     name lfingers
     direction 1 -4.48961e-011 5.83968e-027   
     length 0.527534   
     axis -3.72598e-015 90 90   XYZ
    dof rx
    limits (0.0 90.0)
  end
  begin
     id 23
     name lthumb
     direction 0.707107 -6.34963e-011 0.707107   
     length 0.757437   
     axis -90 45 -6.68868e-015   XYZ
    dof rx rz
    limits (-45.0 45.0)
           (-45.0 45.0)
  end
  begin
     id 24 
     name rclavicle
     direction -0.902944 0.422599 -0.0781198   
     length 3.54432  
     axis 0 0 0   XYZ 
    dof ry rz
    limits (-10.0 20.0)
           (-20.0 0.0)
  end
  begin
     id 25 
     name rhumerus
     direction -1 -4.48953e-011 -4.75835e-028  
     length 5.09181   
     axis 180 30 90   XYZ
    dof rx ry rz
    limits (-90.0 60.0)
           (-90.0 90.0)
           (-90.0 90.0)
  end
  begin
     id 26 
     name rradius
     direction -1 -4.48986e-011 -3.25889e-027   
     length 3.49865   
     axis 180 30 90   XYZ
    dof rx
    limits (-10.0 170.0)
  end
  begin
     id 27 
     name rwrist
     direction -1 -4.48963e-011 1.45989e-027   
     length 1.74933   
     axis 1.49639e-024 -90 -90   XYZ
    dof ry
    limits (-180.0 0.0)
  end
  begin
     id 28
     name rhand
     direction -1 -4.49003e-011 2.91844e-027   
     length 0.66641   
     axis -1.863e-015 -90 -90   XYZ
    dof rx rz
    limits (-90.0 90.0)
           (-45.0 45.0)
  end
  begin
     id 29
     name rfingers
     direction -1 -4.48973e-011 5.83886e-027   
     length 0.537277   
     axis -3.72598e-015 -90 -90   XYZ
    dof rx
    limits (0.0 90.0)
  end
  begin
     id 30
     name rthumb
     direction -0.707107 -6.34976e-011 0.707107   
     length 0.771425   
     axis -90 -45 6.68868e-015   XYZ
    dof rx rz
    limits (-45.0 45.0)
           (-45.0 45.0)
  end
:hierarchy
  begin
    root lhipjoint rhipjoint lowerback
    lhipjoint lfemur
    lfemur ltibia
    ltibia lfoot
    lfoot ltoes
    rhipjoint rfemur
    rfemur rtibia
    rtibia rfoot
    rfoot rtoes
    lowerback upperback
    upperback thorax
    thorax lowerneck lclavicle rclavicle
    lowerneck upperneck
    upperneck head
    lclavicle lhumerus
    lhumerus lradius
    lradius lwrist
    lwrist lhand lthumb
    lhand lfingers
    rclavicle rhumerus
    rhumerus rradius
    rradius rwrist
    rwrist rhand rthumb
    rhand rfingers
  end

#!OML:ASF H:\LiuWeirdWalks\Patient Classification 1\Patient 1\Session 1\male.ASF
:FULLY-SPECIFIED
:DEGREES
81
root -1.02004 17.5947 -28.0809 7.30925 3.24083 -1.6591
lowerback 1.51217 -2.04606 -1.40393
upperback -3.93744 -2.62129 4.21988
thorax -4.66486 -1.16776 5.32234
lowerneck -16.1013 2.48296 2.40986
upperneck 21.0209 4.5163 -7.04467
head 9.5255 1.50969 -2.25807
rclavicle -1.49896e-014 -1.27222e-014
rhumerus -41.2215 0.847732 -79.855
rradius 24.8735
rwrist -4.83565
rhand -16.0119 -3.77232
rfingers 7.12502
rthumb 10.1886 -33.5056
lclavicle -1.49896e-014 -1.27222e-014
lhumerus -42.1514 -1.34457 90.2258
lradius 31.1993
lwrist 8.3699
lhand -12.7305 -1.54751
lfingers 7.12502
lthumb 13.353 28.0046
rfemur -9.2815 -3.83226 23.2029
rtibia 32.7543
rfoot -22.8324 -22.8415
rtoes -2.29683
lfemur -7.38242 -2.9286 -13.7123
ltibia 26.8784
lfoot -18.3746 19.0489
ltoes -9.89774
82
root -1.04624 17.5892 -28.023 7.40997 3.20811 -1.71455
lowerback 1.50777 -2.10884 -1.41468
upperback -3.96184 -2.70236 4.30162
thorax -4.67588 -1.20576 5.41931
lowerneck -16.1378 2.61284 2.46856
upperneck 20.9617 4.70696 -7.16243
head 9.52701 1.5903 -2.28282
rclavicle 2.95444e-014 -2.38542e-014
rhumerus -41.2417 0.9487 -79.8451
rradius 24.5914
rwrist -4.65181
rhand -16.0038 -3.80277
rfingers 7.12502
rthumb 10.1965 -33.5357
lclavicle 2.95444e-014 -2.38542e-014
lhumerus -42.3039 -1.23564 90.2621
lradius 31.3207
lwrist 8.29981
lhand -12.7005 -1.55176
lfingers 7.12502
lthumb 13.3819 27.9985
rfemur -9.14313 -3.74927 23.36
rtibia 32.6563
rfoot -22.767 -22.8849
rtoes -2.65268
lfemur -7.29054 -2.87714 -13.5541
ltibia 26.9156
lfoot -18.3993 19.0553
ltoes -10.2037
83
root -1.07307 17.5839 -27.9646 7.49161 3.19264 -1.79562
lowerback 1.53042 -2.25499 -1.41939
upperback -3.98834 -2.89189 4.46073
thorax -4.68971 -1.29664 5.6012
lowerneck -16.1468 2.89323 2.62349
upperneck 20.8759 5.12519 -7.46098
head 9.53566 1.76545 -2.35628
rclavicle -3.7707e-015 -1.59028e-014
rhumerus -41.2079 1.32004 -79.8532
rradius 24.3015
rwrist -4.50345
rhand -15.9717 -3.86232
rfingers 7.12502
rthumb 10.2275 -33.5937
lclavicle -3.7707e-015 -1.59028e-014
lhumerus -42.4746 -0.83128 90.2652
lradius 31.4412
lwrist 8.22711
lhand -12.698 -1.52194
lfingers 7.12502
lthumb 13.3843 28.0281
rfemur -8.9725 -3.66974 23.5471
rtibia 32.5415
rfoot -22.7038 -22.9127
rtoes -3.0203
lfemur -7.20753 -2.82012 -13.3632
ltibia 26.9989
lfoot -18.4353 19.0539
ltoes -10.5102
84
root -1.10026 17.5792 -27.9061 7.56107 3.19561 -1.90563
lowerback 1.57246 -2.40774 -1.38411
upperback -4.0151 -3.08815 4.62685
thorax -4.71467 -1.39199 5.76949
lowerneck -16.1418 3.17693 2.78407
upperneck 20.7981 5.55027 -7.77223
head 9.54774 1.94305 -2.43407
rclavicle 2.14687e-014 5.56597e-015
rhumerus -41.1704 1.66407 -79.8414
rradius 24.0045
rwrist -4.32583
rhand -15.9303 -3.90256
rfingers 7.12502
rthumb 10.2674 -33.632
lclavicle 2.14687e-014 5.56597e-015
lhumerus -42.6499 -0.424464 90.2634
lradius 31.5677
lwrist 8.17681
lhand -12.687 -1.48484
lfingers 7.12502
lthumb 13.3949 28.0645
rfemur -8.77769 -3.60266 23.7665
rtibia 32.4093
rfoot -22.6232 -22.9196
rtoes -3.4188
lfemur -7.14923 -2.74413 -13.135
ltibia 27.1419
lfoot -18.4898 19.0331
ltoes -10.8073
85
root -1.12807 17.5756 -27.8485 7.62484 3.22295 -2.05696
lowerback 1.64709 -2.60547 -1.3122
upperback -4.04841 -3.34081 4.84029
thorax -4.75741 -1.51551 5.97248
lowerneck -16.101 3.54384 3.00972
upperneck 20.6755 6.09711 -8.18828
head 9.5535 2.1729 -2.54237
rclavicle 1.58034e-014 -1.90833e-014
rhumerus -41.1059 2.15151 -79.8414
rradius 23.7077
rwrist -4.14162
rhand -15.8907 -3.97328
rfingers 7.12502
rthumb 10.3056 -33.7008
lclavicle 1.58034e-014 -1.90833e-014
lhumerus -42.8577 0.147072 90.2389
lradius 31.7324
lwrist 8.17217
lhand -12.6446 -1.39686
lfingers 7.12502
lthumb 13.4357 28.1498
rfemur -8.57109 -3.54986 24.0334
rtibia 32.2602
rfoot -22.5282 -22.8985
rtoes -3.82813
lfemur -7.13625 -2.62869 -12.851
ltibia 27.3557
lfoot -18.5601 18.9698
ltoes -11.0864
86
root -1.15589 17.5728 -27.7912 7.68169 3.26298 -2.23546
lowerback 1.72614 -2.61534 -1.15799
upperback -4.04099 -3.34415 4.89872
thorax -4.79951 -1.52092 5.95159
lowerneck -16.1076 3.53951 2.94859
upperneck 20.566 6.09131 -8.16151
head 9.5133 2.17083 -2.52216
rclavicle -1.67476e-014 3.33958e-014
rhumerus -41.0921 1.90476 -79.7399
rradius 23.4293
rwrist -3.85014
rhand -15.8613 -4.0723
rfingers 7.12502
rthumb 10.334 -33.7984
lclavicle -1.67476e-014 3.33958e-014
lhumerus -42.9337 0.0210233 90.2954
lradius 31.8765
lwrist 8.30818
lhand -12.6101 -1.30918
lfingers 7.12502
lthumb 13.4691 28.2353
rfemur -8.353 -3.52546 24.3246
rtibia 32.0998
rfoot -22.4043 -22.8348
rtoes -4.26698
lfemur -7.16244 -2.47087 -12.5332
ltibia 27.6434
lfoot -18.6332 18.8792
ltoes -11.3799
87
root -1.18354 17.5712 -27.7344 7.73479 3.30746 -2.43446
lowerback 1.81291 -2.61804 -0.974428
upperback -4.02199 -3.33638 4.95776
thorax -4.83666 -1.52217 5.91412
lowerneck -16.0679 3.52234 2.86078
upperneck 20.3917 6.06404 -8.1122
head 9.4389 2.16204 -2.49229
rclavicle 2.92835e-014 -2.06736e-014
rhumerus -41.0593 1.64871 -79.643
rradius 23.1567
rwrist -3.55692
rhand -15.868 -4.21264
rfingers 7.12502
rthumb 10.3275 -33.9391
lclavicle 2.92835e-014 -2.06736e-014
lhumerus -42.9966 -0.105938 90.3467
lradius 32.0316
lwrist 8.4939
lhand -12.5867 -1.25791
lfingers 7.12502
lthumb 13.4916 28.2851
rfemur -8.13192 -3.53099 24.6313
rtibia 31.929
rfoot -22.2298 -22.7333
rtoes -4.75946
lfemur -7.23061 -2.26503 -12.1914
ltibia 28.001
lfoot -18.6833 18.7652
ltoes -11.7341
